<?xml version="1.0" encoding="UTF-8" standalone="no"?>
<!-- Created with Inkscape (http://www.inkscape.org/) -->

<svg
   xmlns:dc="http://purl.org/dc/elements/1.1/"
   xmlns:cc="http://creativecommons.org/ns#"
   xmlns:rdf="http://www.w3.org/1999/02/22-rdf-syntax-ns#"
   xmlns:svg="http://www.w3.org/2000/svg"
   xmlns="http://www.w3.org/2000/svg"
   xmlns:sodipodi="http://sodipodi.sourceforge.net/DTD/sodipodi-0.dtd"
   xmlns:inkscape="http://www.inkscape.org/namespaces/inkscape"
   id="svg3039"
   version="1.1"
   inkscape:version="0.48.5 r10040"
   width="500"
   height="500"
   sodipodi:docname="feature-gfx.svg"
   inkscape:export-filename="/home/anders/dev/haffa-app/resources/feature-gfx.png"
   inkscape:export-xdpi="235.17"
   inkscape:export-ydpi="235.17">
  <metadata
     id="metadata3045">
    <rdf:RDF>
      <cc:Work
         rdf:about="">
        <dc:format>image/svg+xml</dc:format>
        <dc:type
           rdf:resource="http://purl.org/dc/dcmitype/StillImage" />
        <dc:title></dc:title>
      </cc:Work>
    </rdf:RDF>
  </metadata>
  <defs
     id="defs3043" />
  <sodipodi:namedview
     pagecolor="#ffffff"
     bordercolor="#666666"
     borderopacity="1"
     objecttolerance="10"
     gridtolerance="10"
     guidetolerance="10"
     inkscape:pageopacity="0"
     inkscape:pageshadow="2"
     inkscape:window-width="1600"
     inkscape:window-height="834"
     id="namedview3041"
     showgrid="false"
     inkscape:zoom="0.99453505"
     inkscape:cx="461.69571"
     inkscape:cy="344.0363"
     inkscape:window-x="0"
     inkscape:window-y="27"
     inkscape:window-maximized="1"
     inkscape:current-layer="svg3039"
     showguides="true"
     inkscape:guide-bbox="true" />
  <rect
     style="fill:#8acab8;fill-opacity:1;stroke:none"
     id="rect3049"
     width="391.88199"
     height="191.49153"
     x="60.48344"
     y="134.88445"
     ry="0" />
  <path
     style="fill:#e83d44;fill-opacity:1;stroke-width:0;stroke-miterlimit:4;stroke-dasharray:none"
     d="m 241.66309,189.10899 c 6.62616,17.39019 -1.80657,37.88659 -18.78065,45.64786 -4.6909,2.14485 -7.57499,2.94041 -12.29327,3.39097 -15.44303,1.47469 -30.34232,-7.37447 -36.92123,-21.92863 l -1.82592,-4.03939 -7.73711,-7.25554 c -14.70035,-13.78537 -13.92029,-12.88669 -12.78735,-14.73193 0.7969,-1.29791 0.3637,-1.87952 -0.85971,-1.15412 -1.09417,0.64884 -7.2585,2.71497 -8.82251,2.95713 -1.22204,0.1892 -1.45314,0.45409 -3.39081,3.88626 -2.06075,3.65015 -2.10711,3.7 -5.16465,5.55347 -1.69688,1.02867 -3.51652,1.89252 -4.04365,1.9197 -0.52713,0.0272 -3.83409,-0.44721 -7.34879,-1.05415 l -6.39037,-1.10355 -0.56821,1.6488 c -2.35412,6.83156 -2.82768,8.30467 -2.7332,8.50232 0.0591,0.12351 2.49409,-0.082 5.41121,-0.45673 6.52175,-0.83779 7.18857,-0.80323 7.8977,0.40917 0.30611,0.52332 2.20791,6.99284 4.22626,14.37669 l 3.66971,13.42518 2.33286,2.78905 c 4.1779,4.99472 7.43799,12.49829 8.18449,18.83805 0.87909,7.46587 -1.03627,16.70372 -4.72559,22.79287 -3.15368,5.20465 -6.41373,8.5871 -11.5995,12.03491 -9.15665,6.08791 -18.66991,7.70639 -29.46294,5.01251 -9.836256,-2.45508 -17.663319,-8.67777 -22.706644,-18.05232 -5.463125,-10.15492 -6.070724,-20.84198 -1.773997,-31.20307 1.764504,-4.25488 3.495337,-7.14558 5.841886,-9.7566 l 2.001833,-2.22745 0.472862,-10.65497 c 0.537082,-12.10205 0.634868,-12.90611 1.642402,-13.50502 0.401707,-0.23858 3.119076,-0.69542 6.038803,-1.01484 2.919717,-0.31943 5.357734,-0.61044 5.417805,-0.6467 0.06006,-0.0363 0.102152,-0.78281 0.09352,-1.659 -0.01665,-1.68938 5.320568,-18.78764 6.690308,-21.43298 0.47883,-0.92473 1.32118,-1.84633 2.06315,-2.25722 0.68967,-0.3819 1.57231,-1.23617 1.9614,-1.89839 0.79061,-1.34553 2.08669,-2.25585 3.58697,-2.51939 0.55029,-0.0967 4.18499,0.39883 8.07713,1.10109 3.89215,0.70227 7.26115,1.16551 7.48671,1.02941 0.22552,-0.1361 2.12448,-3.15822 4.21988,-6.71585 3.22236,-5.47104 4.06204,-6.62257 5.44562,-7.46812 1.99327,-1.21813 3.78546,-0.94508 7.20822,1.09824 l 2.27148,1.35604 7.10053,-2.66078 c 7.9196,-2.96773 9.09132,-3.07809 11.31001,-1.06523 0.68329,0.61991 1.36065,1.05568 1.50528,0.96842 0.31694,-0.19117 7.30781,-10.16046 8.73447,-12.45559 0.63068,-1.01464 1.37426,-1.73724 1.97769,-1.92193 0.70961,-0.21716 3.7355,1.0074 11.36766,4.60048 l 10.40065,4.89643 3.72433,-0.75257 c 6.73764,-1.36142 13.4881,-0.8325 19.86182,1.55621 10.10054,3.78544 17.78872,11.50524 21.71167,21.80091 z m -11.93182,-11.23145 c -4.58187,-4.30107 -12.51447,-7.93658 -18.762,-8.59859 -3.79866,-0.40251 -8.61971,-0.0799 -11.92864,0.79817 l -2.15508,0.57188 -1.26545,3.66113 c -1.37775,3.98588 -2.49762,7.56111 -2.4121,7.70071 0.0296,0.0486 1.37487,-0.68255 2.98926,-1.62451 11.16766,-6.51606 25.32599,-2.93724 31.97506,8.08239 5.56455,9.2222 4.26247,21.06918 -3.15581,28.7135 -1.12793,1.1623 -1.19767,1.39559 -0.58049,1.94196 2.28013,2.01856 3.50102,3.61754 3.86105,5.05682 0.20737,0.82896 0.49468,1.53632 0.63851,1.57189 0.53865,0.13321 3.99032,-3.89064 5.93504,-6.91897 4.81202,-7.49324 6.26391,-17.85209 3.72358,-26.56646 -0.73747,-2.52979 -1.41442,-3.87017 -3.97788,-7.87633 -1.94785,-3.04413 -3.75262,-5.45057 -4.88501,-6.51357 z m -6.39215,9.73323 c -0.9604,-1.14564 -2.97268,-2.86782 -4.52491,-3.8723 -10.61315,-6.86795 -25.36977,-1.84304 -29.73497,10.12532 -4.12272,11.30357 2.2535,23.29282 13.99827,26.32099 2.59044,0.66789 4.51701,0.8219 7.11035,0.56839 3.54821,-0.34684 3.56863,-0.35463 8.11243,-3.09629 4.23472,-2.55518 4.65887,-2.9034 6.02774,-4.94872 3.21472,-4.80326 4.46384,-10.2221 3.5234,-15.28521 -0.83129,-4.47559 -1.79407,-6.56917 -4.51233,-9.81219 z m -39.84019,-22.63471 -7.648,-3.58181 -0.98083,1.37967 c -6.38585,8.98231 -19.19565,28.2813 -19.00025,28.62537 0.13955,0.24569 1.96219,2.04965 4.05035,4.00878 2.08816,1.95913 6.51119,6.22594 9.82896,9.4818 5.84809,5.73898 6.0638,5.99843 7.06395,8.49619 4.89792,12.23202 16.36962,20.36168 29.36107,20.80736 3.81796,0.13098 7.51188,-0.5169 13.60811,-2.38677 2.9564,-0.90679 3.41941,-1.15109 4.19907,-2.2157 1.8751,-2.56037 1.15202,-5.81955 -1.61034,-7.25871 -1.54206,-0.80341 -2.48172,-0.69029 -7.8193,0.94135 -4.89059,1.49499 -8.00919,1.55557 -12.71558,0.247 -6.39596,-1.77835 -10.46096,-4.93792 -14.08914,-10.95096 -5.02888,-8.33444 -4.71865,-12.99379 2.19628,-32.98494 l 3.43699,-9.93643 -1.11669,-0.54518 c -0.61417,-0.29987 -4.55827,-2.15703 -8.76465,-4.12702 z m -9.60785,16.87064 c -0.47434,1.39204 -0.78445,1.72232 -2.18314,2.32473 -1.33456,0.5748 -1.99156,1.21689 -3.62165,3.53945 -1.09523,1.56051 -2.16711,2.79474 -2.38196,2.74269 -0.21495,-0.0516 -1.00217,-0.54272 -1.74961,-1.09044 l -1.35896,-0.99584 2.1434,-3.16617 c 1.20353,-1.7778 2.12121,-3.59657 2.0928,-4.14768 -0.0642,-1.24501 1.50102,-3.41039 2.68215,-3.7106 2.99114,-0.76027 5.34523,1.66206 4.37697,4.50386 z m -13.33645,-10.80798 c -0.61094,-0.37511 -1.45841,-0.62109 -1.88326,-0.54664 -2.23458,0.39163 -20.63035,7.73642 -21.4542,8.56592 -0.7284,0.73336 -0.61846,3.40186 0.19581,4.7513 l 0.53031,0.87888 0.98252,-1.80793 c 1.24089,-2.28335 1.77983,-2.58907 10.81882,-6.13729 8.01736,-3.14719 9.13055,-3.30929 10.2285,-1.48966 0.70432,1.16731 0.6064,1.19206 1.81556,-0.459 1.0711,-1.46252 0.70978,-2.56211 -1.23405,-3.75559 z m -2.92896,4.48296 c -0.29449,0.0565 -2.65337,0.88533 -5.24193,1.84176 l -4.70646,1.73895 -0.82201,1.93894 c -0.45211,1.06641 -1.18164,2.42684 -1.6212,3.02318 -0.43956,0.59632 -0.73301,1.19391 -0.65213,1.32797 0.0808,0.13408 3.11654,-0.83709 6.74588,-2.15809 6.88247,-2.50508 7.26142,-2.74543 7.80712,-4.95154 0.26133,-1.05612 -0.75037,-2.90686 -1.50927,-2.76117 z m -8.45537,10.11544 c -5.7065,2.07962 -6.20726,2.32793 -6.86928,3.40617 -0.59283,0.96553 -0.58847,1.1589 0.0257,1.13882 0.91399,-0.0299 10.28138,-3.38924 11.49837,-4.12356 0.8711,-0.5256 1.87627,-2.04174 1.62725,-2.45445 -0.0697,-0.11563 -2.89664,0.79928 -6.28201,2.03302 z m -6.74697,-4.12274 c -0.73243,0.41063 -2.22032,2.43273 -4.33996,5.89818 -2.67669,4.37618 -3.31023,5.7695 -3.72389,8.18976 -0.79117,4.62897 -0.51638,4.47354 3.19858,-1.80912 1.53534,-2.59652 3.96995,-6.68909 5.41025,-9.09461 2.31585,-3.86779 2.50024,-4.34103 1.59416,-4.09137 -0.56356,0.15527 -1.52616,0.56349 -2.13914,0.90716 z m -5.25186,-9.03392 c -0.61441,-0.0419 -1.43945,0.11231 -1.83343,0.34272 -0.39396,0.23044 -3.35416,4.65138 -6.57818,9.8244 -5.19166,8.33016 -5.8322,9.55544 -5.60253,10.71689 0.36147,1.82796 0.76019,2.37552 2.53138,3.4765 2.7164,1.68849 3.44277,-0.13385 1.20218,-3.0161 l -1.26581,-1.62825 2.59228,-4.31843 c 1.42575,-2.37514 3.48898,-5.90463 4.58496,-7.84331 1.09597,-1.93867 2.38153,-3.7595 2.85678,-4.04627 0.51838,-0.31277 1.49265,-0.3269 2.43503,-0.0353 1.18113,0.36538 1.87605,0.30191 2.80054,-0.25589 l 1.22962,-0.74192 -1.91787,-1.1994 c -1.05485,-0.65966 -2.4206,-1.23368 -3.03499,-1.2756 z m -2.60483,7.99786 c -0.21595,0.13593 -3.71507,5.91916 -3.82544,6.32261 -0.0196,0.0703 0.64837,0.55309 1.48363,1.07258 0.83526,0.5195 1.69676,1.23971 1.91442,1.60047 0.21766,0.36077 0.47987,0.52785 0.58259,0.37139 1.98052,-3.01634 2.00669,-3.13263 1.21042,-5.37879 -0.42857,-1.20885 -0.78611,-2.51636 -0.79457,-2.90559 -0.0192,-0.88691 -0.23426,-1.29457 -0.57102,-1.08266 z m -3.0209,8.7784 c -1.17319,-0.80324 -2.19179,-0.57763 -3.04977,0.67552 -0.69989,1.02221 -0.65249,1.51392 0.14673,1.52244 0.2646,0.003 0.75922,0.46609 1.09916,1.02951 0.8079,1.33893 -0.11481,5.78652 -1.35441,6.53065 -0.56332,0.33799 -2.71374,0.1904 -6.37958,-0.43781 -4.6387,-0.79499 -5.6016,-0.82702 -5.97518,-0.19882 -0.24495,0.4119 -0.37369,0.86766 -0.28616,1.01279 0.0876,0.14512 3.13608,0.77169 6.77437,1.39259 8.75338,1.49316 9.19037,1.2634 10.3328,-5.43277 0.6646,-3.89552 0.45131,-4.88946 -1.30762,-6.09376 z m -15.14777,-2.96067 c -9.12509,-1.57423 -9.4002,-1.41396 -10.72226,6.24661 -0.36803,2.13263 -0.31498,3.1031 0.21796,3.98634 0.74247,1.23053 2.94867,2.33215 3.72835,1.8617 0.83215,-0.50213 0.74335,-1.67293 -0.18187,-2.39779 -1.66869,-1.30735 -1.16378,-5.87185 0.7792,-7.04422 0.91788,-0.55384 2.05069,-0.52332 5.87693,0.15826 6.834,1.2174 6.30455,1.21042 7.06964,0.093 0.36498,-0.5331 0.55083,-1.13553 0.41297,-1.33878 -0.13784,-0.20323 -3.36926,-0.90755 -7.18093,-1.56516 z m -0.56253,4.52914 c -0.0972,0.0567 0.13409,0.68394 0.51381,1.39348 0.37971,0.70953 0.669,1.86607 0.64283,2.57008 l -0.0476,1.28001 2.62309,0.46609 c 3.01742,0.53615 3.33693,0.46096 2.67838,-0.63051 -0.26345,-0.43664 -0.50258,-1.52912 -0.53137,-2.42775 l -0.0523,-1.63387 -2.82512,-0.56049 c -1.55383,-0.30825 -2.9046,-0.51392 -3.00173,-0.45706 z m -3.36153,0.1046 c -0.77395,-0.3193 -1.50773,-0.51982 -1.63061,-0.44569 -0.12281,0.0742 -0.35661,0.75575 -0.5194,1.51466 -0.22847,1.06465 -0.14366,1.41753 0.3708,1.54477 1.70691,0.42223 1.57966,1.65149 -1.04432,10.08925 -2.55598,8.21908 -2.5922,8.41937 -1.51586,8.37994 0.60649,-0.0222 1.3173,-0.16224 1.57956,-0.31118 0.49026,-0.27841 5.81646,-17.03297 5.70224,-17.93742 -0.11394,-0.90215 -1.50366,-2.24082 -2.94242,-2.83435 z m 1.58089,24.47186 c -4.35546,0.5151 -12.3324,1.43268 -17.726503,2.0391 -5.394122,0.60643 -9.859049,1.13369 -9.92206,1.1717 -0.179143,0.1081 -1.020207,19.33347 -0.845807,19.33392 0.08532,2.9e-4 1.831235,0.28283 3.879737,0.62799 2.048492,0.34515 6.905412,1.08697 10.793173,1.64842 15.51443,2.24048 21.2156,5.08227 25.95547,12.93773 3.40912,5.65001 4.40572,11.87199 2.8623,17.87003 -1.17089,4.55026 -2.73795,7.296 -6.24604,10.9441 -4.60197,4.78565 -5.13451,6.15896 -3.46278,8.92954 1.22623,2.03225 4.0915,2.87385 5.95535,1.74923 1.83961,-1.10998 7.90383,-7.41623 9.37344,-9.74754 3.82277,-6.06422 5.58951,-13.24269 4.96515,-20.17415 -0.68068,-7.55669 -1.71087,-10.01631 -8.6297,-20.60379 -1.94333,-2.97375 -2.13213,-3.50761 -5.22419,-14.77195 -1.76441,-6.42768 -3.34313,-11.95763 -3.50827,-12.28876 -0.2191,-0.43937 -2.44049,-0.34897 -8.21927,0.33443 z m 2.58427,6.11927 c 0.0545,0.95293 -0.0351,1.81361 -0.19925,1.91265 -0.16417,0.099 -1.48094,0.31437 -2.92622,0.47849 -1.90831,0.21672 -3.22402,0.64987 -4.80541,1.58199 -2.65103,1.56267 -4.56273,1.40835 -5.68961,-0.45923 -0.97628,-1.61801 -1.0292,-2.38042 -0.25301,-3.64461 1.15075,-1.87422 2.36562,-2.31281 4.64387,-1.67658 1.29664,0.36215 3.3448,0.4058 5.49404,0.11721 1.88466,-0.25309 3.47388,-0.36618 3.53156,-0.25132 0.0577,0.11486 0.1495,0.98848 0.20403,1.9414 z m -12.77131,-31.60764 c -0.82664,0.49878 -6.546212,16.89527 -7.242665,20.76272 -0.383974,2.13244 -0.09428,2.58365 1.587953,2.47305 1.764117,-0.11598 2.311952,-0.4654 1.599409,-1.02011 -1.099531,-0.85597 -0.910631,-2.03689 1.521083,-9.5095 2.74965,-8.44944 3.74423,-13.43627 2.53422,-12.70616 z m 3.89838,9.7948 c -0.62441,-0.12205 -1.59793,-0.56618 -2.16329,-0.98756 l -1.02792,-0.76608 -2.03603,6.10841 c -1.11978,3.35964 -1.96651,6.3208 -1.88152,6.5804 0.22408,0.68446 3.88776,1.8793 4.36251,1.42277 0.44013,-0.42323 4.17401,-11.56838 3.99331,-11.91942 -0.0615,-0.11938 -0.62262,-0.31667 -1.24704,-0.43853 z m 12.56291,51.26912 c -5.60458,-5.46823 -14.71069,-7.18714 -22.062475,-4.16459 -10.002922,4.11254 -14.870703,16.25051 -10.631403,26.50976 2.360217,5.71181 7.737827,10.17753 13.944478,11.57991 6.93282,1.56647 13.31997,-0.12801 18.45297,-4.89549 8.17271,-7.59073 8.31178,-21.20924 0.29643,-29.02959 z m -29.996325,-8.63027 c -2.908525,-0.50922 -5.497345,-0.79964 -5.752914,-0.64542 -0.997363,0.60178 -4.927345,5.86847 -6.213372,8.32669 -2.60605,4.98141 -4.049122,12.16267 -3.600929,17.91947 1.354658,17.39977 16.84588,30.82459 34.25552,29.68614 2.94732,-0.19274 8.53818,-1.26707 9.44675,-1.81528 0.14565,-0.088 -0.32294,-0.76862 -1.04136,-1.5127 -0.97814,-1.01305 -1.49127,-1.93403 -2.04287,-3.66663 -0.40514,-1.27257 -0.81335,-2.45304 -0.9071,-2.62326 -0.0937,-0.17024 -1.20491,-0.0532 -2.46924,0.25998 -7.43499,1.84187 -15.179152,0.0854 -21.090612,-4.7835 -2.764368,-2.27685 -6.085398,-7.23755 -7.232982,-10.80339 -1.870704,-5.81361 -1.492289,-11.59919 1.123629,-17.17909 2.046156,-4.36458 4.264154,-6.95465 8.376678,-9.78181 1.821281,-1.25205 3.1147,-2.31671 2.874206,-2.36597 -0.240457,-0.0492 -2.816894,-0.50609 -5.72543,-1.01526 z"
     id="path3921"
     inkscape:connector-curvature="0" />
  <text
     xml:space="preserve"
     style="font-size:39.42410660000000178px;font-style:normal;font-variant:normal;font-weight:bold;font-stretch:normal;text-align:start;line-height:125%;letter-spacing:0px;word-spacing:0px;writing-mode:lr-tb;text-anchor:start;fill:#e83d44;fill-opacity:1;stroke:none;font-family:Century Schoolbook L;-inkscape-font-specification:Century Schoolbook L Bold"
     x="159.9072"
     y="285.62167"
     id="text3863"
     sodipodi:linespacing="125%"><tspan
       sodipodi:role="line"
       id="tspan3865"
       x="159.9072"
       y="285.62167">HAFFAKORT</tspan></text>
</svg>
